<svg preserveAspectRatio="none" overflow="visible" style="display: block;" width="18.6667" height="18.6667" viewBox="0 0 18.6667 18.6667" fill="none" xmlns="http://www.w3.org/2000/svg">
<path id="Icon" d="M6.90833 6.83333C7.10425 6.27639 7.49096 5.80676 7.99996 5.50761C8.50896 5.20847 9.10741 5.09912 9.68931 5.19893C10.2712 5.29874 10.799 5.60127 11.1792 6.05294C11.5594 6.50461 11.7675 7.07627 11.7667 7.66667C11.7667 9.33333 9.26667 10.1667 9.26667 10.1667M9.33333 13.5H9.34167M17.6667 9.33333C17.6667 13.9357 13.9357 17.6667 9.33333 17.6667C4.73096 17.6667 1 13.9357 1 9.33333C1 4.73096 4.73096 1 9.33333 1C13.9357 1 17.6667 4.73096 17.6667 9.33333Z" stroke="#1E1E1E" stroke-width="2" stroke-linecap="round" stroke-linejoin="round"/>
</svg>
